<?xml version="1.0" encoding="UTF-8"?>
<svg id="Layer_1" data-name="Layer 1" xmlns="http://www.w3.org/2000/svg" xmlns:xlink="http://www.w3.org/1999/xlink" viewBox="0 0 378 338.99">
  <defs>
    <linearGradient id="linear-gradient" x1="-859.16" y1="200.96" x2="-874.25" y2="171.11" gradientTransform="translate(8864.96 -1700.28) scale(10)" gradientUnits="userSpaceOnUse">
      <stop offset="0" stop-color="#89dfd8"/>
      <stop offset="1" stop-color="#a4e7e4"/>
    </linearGradient>
    <linearGradient id="linear-gradient-2" x1="-872.25" y1="166.72" x2="-872.25" y2="179.62" gradientTransform="translate(8864.96 -1700.28) scale(10)" gradientUnits="userSpaceOnUse">
      <stop offset="0" stop-color="#89dfd8" stop-opacity="0"/>
      <stop offset="1" stop-color="#65c7bf"/>
    </linearGradient>
    <linearGradient id="linear-gradient-3" x1="-862.03" y1="169" x2="-862.03" y2="178.12" gradientTransform="translate(8864.96 -1700.28) scale(10)" gradientUnits="userSpaceOnUse">
      <stop offset="0" stop-color="#89dfd8" stop-opacity="0"/>
      <stop offset="1" stop-color="#65c7bf"/>
    </linearGradient>
    <linearGradient id="linear-gradient-4" x1="-875.34" y1="185.36" x2="-813.57" y2="194.16" gradientTransform="translate(8864.96 -1700.28) scale(10)" gradientUnits="userSpaceOnUse">
      <stop offset="0" stop-color="#89dfd8" stop-opacity="0"/>
      <stop offset="1" stop-color="#65c7bf"/>
    </linearGradient>
    <linearGradient id="linear-gradient-5" x1="-877.4" y1="193.88" x2="-884.96" y2="202.23" gradientTransform="translate(8864.96 -1700.28) scale(10)" gradientUnits="userSpaceOnUse">
      <stop offset="0" stop-color="#89dfd8" stop-opacity="0"/>
      <stop offset="1" stop-color="#65c7bf"/>
    </linearGradient>
    <linearGradient id="linear-gradient-6" x1="-865.83" y1="186.88" x2="-795.56" y2="199.13" gradientTransform="translate(8864.96 -1700.28) scale(10)" gradientUnits="userSpaceOnUse">
      <stop offset="0" stop-color="#89dfd8" stop-opacity="0"/>
      <stop offset="1" stop-color="#65c7bf"/>
    </linearGradient>
    <radialGradient id="radial-gradient" cx="-992.48" cy="121.33" fx="-992.48" fy="121.33" r="1" gradientTransform="translate(-102600.17 6476.96) rotate(-180) scale(103.56 52.58)" gradientUnits="userSpaceOnUse">
      <stop offset="0" stop-color="#bdefeb"/>
      <stop offset="1" stop-color="#bdefeb" stop-opacity="0"/>
    </radialGradient>
    <linearGradient id="linear-gradient-7" x1="-888.39" y1="182.83" x2="-852.16" y2="175.85" gradientTransform="translate(8864.96 -1700.28) scale(10)" gradientUnits="userSpaceOnUse">
      <stop offset="0" stop-color="#89dfd8" stop-opacity="0"/>
      <stop offset="1" stop-color="#65c7bf"/>
    </linearGradient>
    <linearGradient id="linear-gradient-8" x1="-898.02" y1="181.78" x2="-859.77" y2="181.27" gradientTransform="translate(8864.96 -1700.28) scale(10)" gradientUnits="userSpaceOnUse">
      <stop offset="0" stop-color="#89dfd8" stop-opacity="0"/>
      <stop offset="1" stop-color="#65c7bf"/>
    </linearGradient>
  </defs>
  <path d="M351.15,288.01c5.99-10.83,10.87-29.72,15.47-48.51,7.62-31.06,11.15-57.94,11.15-90.22,0-94.39-33.07-113.77-57.26-112.96s-27.18-18.05-53.33-23.13c-20.1-3.88-23.98,5.89-36.91,5.89S210.69,0,188.97,0s-39.47,16.94-39.47,16.94c0,0-7.13-10.45-43.56-9.17-47.15,1.62-41.56,58.08-41.56,88.93s-.81-37.21-.81-37.21c0,0-73.94-24.96-62.34,84.02,2.64,24.78,1.11,52.28,16.9,82.31,27.44,52.17,69.74,91.1,82.87,97.18,41.24,19.11,212,34,250.15-34.99Z" fill="url(#linear-gradient)"/>
  <path d="M149.51,16.98s12.5-11.86,29.36-15.75c-8.36,2.82-24.36,22.19-31.11,32.69,0,0-25.22-26.88-41.81-26.16,35.37-1.54,43.56,9.22,43.56,9.22Z" fill="url(#linear-gradient-2)"/>
  <path d="M263.98,12.72c-5.5-.38-4.14,13.57-30.55,14.98,0,0-16.04-8.54-3.16-8.54,12.2-.04,16.39-8.75,33.71-6.44Z" fill="url(#linear-gradient-3)"/>
  <path d="M304.91,323.75c-19.77,8.75-32.41,8.13-48.61,12.19,60.72-55.94,22.7-9.02,80.77-86.39,33.2-44.21,24.79-127.08,21.16-159.73-3.63-32.69-31.45-39.34-50.82-44.17-16.81-4.22-23.13-25.9-36.69-31.58,22.91,6.02,26.75,23.04,49.79,22.28,24.19-.81,57.26,18.56,57.26,112.96,0,6.82,3.19,39.83-14.62,100.94-7.41,25.43-8.05,37.75-20.6,49.92-14.99,14.54-26.84,18.8-37.64,23.58Z" fill="url(#linear-gradient-4)"/>
  <path d="M101,323c-23.59-18.94-61.2-49.56-84.18-101.62-6.23-14.12-9.41-28.57-12.38-40.97,46.76,50.91,92.41,102.73,139.17,153.65-15.9-2.32-25.03-3.46-42.62-11.05Z" fill="url(#linear-gradient-5)"/>
  <path d="M256.3,247.2c14.23-58.04,21.42-87.6,25.31-113.88,3.81-25.82,7.02-64.79,1.01-114.51,13.31,7.43,19.5,18.14,37.85,17.5,24.19-.81,57.26,18.56,57.26,112.96,0,42.07-5.29,70.19-11.15,90.23-7.15,24.43-10.1,36.38-15.47,48.5-17.68,39.93-109.76,49.59-109.76,49.59,0,0-1.63-22.8,14.95-90.39Z" fill="url(#linear-gradient-6)"/>
  <path d="M132.53,46.86c25.43,0,39.94-8.49,60.5-8.49s87.13,12.46,87.13,56.88-36.31,134.55-76.25,145.94-110.94-43.19-116.95-79.54c-6.02-36.36,5.63-114.79,45.57-114.79Z" fill="url(#radial-gradient)" isolation="isolate" opacity=".5"/>
  <path d="M27.48,60.98c16.43,29.91,30.38,67.47,37.55,110.18v-54.41l-2.13-57.44c-3.59-1.02-20.14-5.25-35.42,1.66h0Z" fill="url(#linear-gradient-7)"/>
  <path d="M64.73,60.04l-1.11-.47s-7.81-2.6-17.92-2.43c1.62,6.83,2.69,13.87,3.03,21.17,1.92,41.48,17.75,94.99,17.75,94.99l-1.75-113.25h0Z" fill="url(#linear-gradient-8)"/>
  <path d="M66.82,176.28s-2.13-115.48-2.13-116.29c0,0-1.58-1.62-5.8-1.62-1.28.04-2.6,84.79,7.94,117.91h-.01Z" fill="#0096a3"/>
</svg>