<?xml version="1.0" encoding="UTF-8"?>
<svg id="Layer_1" data-name="Layer 1" xmlns="http://www.w3.org/2000/svg" xmlns:xlink="http://www.w3.org/1999/xlink" viewBox="0 0 436.27 598.65">
  <defs>
    <linearGradient id="linear-gradient" x1="-772.2" y1="45.41" x2="-827.23" y2="37.68" gradientTransform="translate(8336.68 -97) scale(10)" gradientUnits="userSpaceOnUse">
      <stop offset="0" stop-color="#74d2cd"/>
      <stop offset="1" stop-color="#94dedc"/>
    </linearGradient>
    <linearGradient id="linear-gradient-2" x1="-835.09" y1="44.35" x2="-805.8" y2="37.3" gradientTransform="translate(8336.68 -97) scale(10)" gradientUnits="userSpaceOnUse">
      <stop offset="0" stop-color="#74d2cd" stop-opacity="0"/>
      <stop offset="1" stop-color="#53b8b4"/>
    </linearGradient>
    <linearGradient id="linear-gradient-3" x1="-834.01" y1="46.12" x2="-820.05" y2="39.45" gradientTransform="translate(8336.68 -97) scale(10)" gradientUnits="userSpaceOnUse">
      <stop offset=".31" stop-color="#74d2cd" stop-opacity="0"/>
      <stop offset="1" stop-color="#53b8b4"/>
    </linearGradient>
    <linearGradient id="linear-gradient-4" x1="-824.52" y1="20.9" x2="-793.1" y2="30.76" gradientTransform="translate(8336.68 -97) scale(10)" gradientUnits="userSpaceOnUse">
      <stop offset="0" stop-color="#74d2cd" stop-opacity="0"/>
      <stop offset="1" stop-color="#53b8b4"/>
    </linearGradient>
    <linearGradient id="linear-gradient-5" x1="-805.17" y1="33.14" x2="-805.17" y2="41.85" gradientTransform="translate(8336.68 -97) scale(10)" gradientUnits="userSpaceOnUse">
      <stop offset="0" stop-color="#74d2cd" stop-opacity="0"/>
      <stop offset="1" stop-color="#53b8b4"/>
    </linearGradient>
    <linearGradient id="linear-gradient-6" x1="-805.29" y1="51.28" x2="-766.28" y2="57.36" gradientTransform="translate(8336.68 -97) scale(10)" gradientUnits="userSpaceOnUse">
      <stop offset="0" stop-color="#74d2cd" stop-opacity="0"/>
      <stop offset="1" stop-color="#53b8b4"/>
    </linearGradient>
    <linearGradient id="linear-gradient-7" x1="-814.24" y1="56.03" x2="-829.11" y2="74.01" gradientTransform="translate(8336.68 -97) scale(10)" gradientUnits="userSpaceOnUse">
      <stop offset="0" stop-color="#74d2cd" stop-opacity="0"/>
      <stop offset="1" stop-color="#53b8b4"/>
    </linearGradient>
    <linearGradient id="linear-gradient-8" x1="-809.75" y1="48.81" x2="-744.82" y2="58.46" gradientTransform="translate(8336.68 -97) scale(10)" gradientUnits="userSpaceOnUse">
      <stop offset="0" stop-color="#74d2cd" stop-opacity="0"/>
      <stop offset="1" stop-color="#53b8b4"/>
    </linearGradient>
    <radialGradient id="radial-gradient" cx="-933.5" cy=".48" fx="-933.5" fy=".48" r="1" gradientTransform="translate(-96420.62 362.62) rotate(-180) scale(103.55 52.57)" gradientUnits="userSpaceOnUse">
      <stop offset="0" stop-color="#b1e9e6"/>
      <stop offset="1" stop-color="#b1e9e6" stop-opacity="0"/>
    </radialGradient>
    <radialGradient id="radial-gradient-2" cx="-926.25" cy="-49.4" fx="-926.25" fy="-49.4" r="1" gradientTransform="translate(-3832.99 117728.01) rotate(91.59) scale(127 14.81)" gradientUnits="userSpaceOnUse">
      <stop offset="0" stop-color="#b1e9e6"/>
      <stop offset="1" stop-color="#b1e9e6" stop-opacity="0"/>
    </radialGradient>
  </defs>
  <path d="M405.7,535.16c12.05-15.19,13.1-22.71,19.42-48.48,7.62-31.05,11.15-57.93,11.15-90.2,0-94.38-33.06-113.75-57.25-112.93s-27.17-18.05-53.32-23.12c-20.09-3.88-23.97,5.89-36.9,5.89s-19.58-19.07-41.34-19.07-39.46,16.94-39.46,16.94V98.05c0-43.52,3.62-98.01-43.56-98.01s-41.55,58.07-41.55,88.91-.81,217.81-.81,217.81c0,0-20.56-76.24-79.86-76.24-22.14,0-34.43,5.75-39.58,14.69-10.42,18.07,12.79,48.02,21.45,59.72,89.95,121.51-5.58,138.68,92.78,241.94,67.95,71.33,223.87,70.18,288.83-11.71Z" fill="url(#linear-gradient)"/>
  <path d="M13.76,235.73c6.7-3.24,15.95-5.21,28.54-5.21,52.77,0,74.83,60.29,79.05,73.55l2.22,59.9v54.4c-17.19-102.57-73.2-176.04-109.81-182.65h0Z" fill="url(#linear-gradient-2)"/>
  <path d="M42.3,230.52c59.3,0,79.86,76.24,79.86,76.24l2.81,113.7s-15.83-53.5-17.75-94.97c-2.43-52.39-39.46-93.95-79.01-93.99,4.14-.64,8.83-.98,14.08-.98h.01Z" fill="url(#linear-gradient-3)"/>
  <path d="M208.03,98.04v166.14s12.5-11.86,29.35-15.74c-8.36,2.82-24.36,22.19-31.1,32.68-7.25,11.31-11.94-11.31-11.94-41.17s-2.43-145.02-2.43-191.57c0-27.82-10.84-48.38-27.43-48.38,47.18.04,43.56,54.48,43.56,98.04h0Z" fill="url(#linear-gradient-4)"/>
  <path d="M322.49,259.91c-12.03.04-16.08,15.19-33.4,15.19s-27.9-27.82-41.59-27.82c21.71,0,28.41,19.07,41.34,19.07,12.16,0,16.34-8.75,33.66-6.44h-.01Z" fill="url(#linear-gradient-5)"/>
  <path d="M401.88,491.57c7.61-21.53,20.3-112.83,14.84-154.56-1.62-12.4-5.85-18.76-7.59-21.24-10.45-14.88-29.08-19.4-43.22-22.92-16.81-4.22-23.12-25.9-36.69-31.57,22.91,6.02,26.75,23.04,49.78,22.27,24.19-.81,57.25,18.56,57.25,112.94,0,42.36-7.79,67.82-11.9,93.38-2.36,14.69-6.94,26.39-12.54,35.95-2.18,3.72-9.94,15.28-24.95,28.51-23.63,20.83-63.19,29.3-63.19,29.3,0,0,50.39-13.32,78.21-92.06Z" fill="url(#linear-gradient-6)"/>
  <path d="M170.88,582.31c-23.92-10.99-46.47-22.45-75.73-59.84-35.06-44.78-22.5-97.85-24.16-115.24,28.84,78.25,86.36,148.02,103.76,160.41,39.73,30.73,77.36,30.9,77.36,30.9,0,0-32.5,2.39-81.22-16.24Z" fill="url(#linear-gradient-7)"/>
  <path d="M314.86,494.37c-11.52-33.19,12.91-56.32,25.3-113.85,9.93-46.09,6.16-86.52,1.02-114.49,13.31,7.42,19.5,18.13,37.84,17.49,18.67-.65,57.25,15.9,57.25,112.93,0,41.83-12.57,116.55-39.89,149.2-18.94,22.64-70-18.06-81.52-51.28Z" fill="url(#linear-gradient-8)"/>
  <path d="M191.05,294.05c25.42,0,39.93-8.49,60.49-8.49s87.11,12.46,87.11,56.87-36.3,134.52-76.23,145.91c-39.93,11.39-110.91-43.18-116.93-79.53-6.06-36.31,5.63-114.77,45.56-114.77h0Z" fill="url(#radial-gradient)" isolation="isolate" opacity=".5"/>
  <path d="M125.36,423.49s-3.24-115.88-3.24-116.69l-2.43-7.38c-1.66,0-2.22,5.03-2.22,6.74,0,3.28-2.64,84.18,7.89,117.33Z" fill="#008797"/>
  <path d="M159.96,36.14c14.16,0,26.32,33.41,17.19,99.15-9.13,65.75,22.14,146.73-12.71,146.73s-17.66-130.51-17.66-150.78-15.14-95.1,13.18-95.1h0Z" fill="url(#radial-gradient-2)" isolation="isolate" opacity=".5"/>
</svg>