<?xml version="1.0" encoding="UTF-8"?>
<svg id="Layer_1" data-name="Layer 1" xmlns="http://www.w3.org/2000/svg" xmlns:xlink="http://www.w3.org/1999/xlink" viewBox="0 0 618.14 679.95">
  <defs>
    <linearGradient id="linear-gradient" x1="-320.9" y1="645.08" x2="-302.93" y2="676.64" gradientTransform="translate(-2729.86 7196) rotate(-180) scale(10)" gradientUnits="userSpaceOnUse">
      <stop offset="0" stop-color="#d2a374"/>
      <stop offset="1" stop-color="#deba94"/>
    </linearGradient>
    <linearGradient id="linear-gradient-2" x1="-347.01" y1="659.95" x2="-329.04" y2="691.51" gradientTransform="translate(-2729.86 7196) rotate(-180) scale(10)" gradientUnits="userSpaceOnUse">
      <stop offset="0" stop-color="#d2a374"/>
      <stop offset="1" stop-color="#deba94"/>
    </linearGradient>
    <linearGradient id="linear-gradient-3" x1="-341.67" y1="656.9" x2="-323.7" y2="688.46" gradientTransform="translate(-2729.86 7196) rotate(-180) scale(10)" gradientUnits="userSpaceOnUse">
      <stop offset="0" stop-color="#d2a374"/>
      <stop offset="1" stop-color="#deba94"/>
    </linearGradient>
    <linearGradient id="linear-gradient-4" x1="-320.75" y1="713.33" x2="-325.59" y2="649.92" gradientTransform="translate(-2729.86 7196) rotate(-180) scale(10)" gradientUnits="userSpaceOnUse">
      <stop offset="0" stop-color="#d2a374" stop-opacity="0"/>
      <stop offset="1" stop-color="#b88653"/>
    </linearGradient>
    <linearGradient id="linear-gradient-5" x1="-325.4" y1="647.64" x2="-307.43" y2="679.2" gradientTransform="translate(-2729.86 7196) rotate(-180) scale(10)" gradientUnits="userSpaceOnUse">
      <stop offset="0" stop-color="#d2a374"/>
      <stop offset="1" stop-color="#deba94"/>
    </linearGradient>
    <linearGradient id="linear-gradient-6" x1="-336.44" y1="653.93" x2="-318.47" y2="685.49" gradientTransform="translate(-2729.86 7196) rotate(-180) scale(10)" gradientUnits="userSpaceOnUse">
      <stop offset="0" stop-color="#d2a374"/>
      <stop offset="1" stop-color="#deba94"/>
    </linearGradient>
    <linearGradient id="linear-gradient-7" x1="-293.75" y1="714.1" x2="-308.09" y2="672.29" gradientTransform="translate(-2729.86 7196) rotate(-180) scale(10)" gradientUnits="userSpaceOnUse">
      <stop offset="0" stop-color="#d2a374" stop-opacity="0"/>
      <stop offset="1" stop-color="#b88653"/>
    </linearGradient>
    <linearGradient id="linear-gradient-8" x1="-309.23" y1="721.87" x2="-314.76" y2="658.8" gradientTransform="translate(-2729.86 7196) rotate(-180) scale(10)" gradientUnits="userSpaceOnUse">
      <stop offset="0" stop-color="#d2a374" stop-opacity="0"/>
      <stop offset="1" stop-color="#b88653"/>
    </linearGradient>
    <linearGradient id="linear-gradient-9" x1="-305.58" y1="685.91" x2="-327.13" y2="687.65" gradientTransform="translate(-2729.86 7196) rotate(-180) scale(10)" gradientUnits="userSpaceOnUse">
      <stop offset="0" stop-color="#ffbc47" stop-opacity="0"/>
      <stop offset="1" stop-color="#ffa754"/>
    </linearGradient>
    <linearGradient id="linear-gradient-10" x1="-279.24" y1="691.68" x2="-296.86" y2="657.47" gradientTransform="translate(-2729.86 7196) rotate(-180) scale(10)" gradientUnits="userSpaceOnUse">
      <stop offset="0" stop-color="#d2a374" stop-opacity="0"/>
      <stop offset="1" stop-color="#b88653"/>
    </linearGradient>
    <linearGradient id="linear-gradient-11" x1="-312.47" y1="728.89" x2="-309.19" y2="663.4" gradientTransform="translate(-2729.86 7196) rotate(-180) scale(10)" gradientUnits="userSpaceOnUse">
      <stop offset="0" stop-color="#d2a374" stop-opacity="0"/>
      <stop offset="1" stop-color="#b88653"/>
    </linearGradient>
    <linearGradient id="linear-gradient-12" x1="-322.58" y1="705.38" x2="-321.2" y2="669.62" gradientTransform="translate(-2729.86 7196) rotate(-180) scale(10)" gradientUnits="userSpaceOnUse">
      <stop offset="0" stop-color="#d2a374" stop-opacity="0"/>
      <stop offset="1" stop-color="#b88653"/>
    </linearGradient>
    <linearGradient id="linear-gradient-13" x1="-294.97" y1="700.03" x2="-315.01" y2="703.48" gradientTransform="translate(-2729.86 7196) rotate(-180) scale(10)" gradientUnits="userSpaceOnUse">
      <stop offset="0" stop-color="#d2a374" stop-opacity="0"/>
      <stop offset="1" stop-color="#b88653"/>
    </linearGradient>
  </defs>
  <path d="M210.72,308.68c10.05,34.39,15.39,76.74-6.02,95.25-21.46,18.51-43.76,4.71-61.82-16.22-46.43-53.82-104.95-38.95-120.87-25.21-8.98,7.72-32.54,35.84-16.61,54.3,18.94,21.9,68.86,15.35,107.71,58.33,45.89,50.8,47.98,89.9,101.3,151.68,53.32,61.78,195.32,74.75,281.42,11.85,50.36-36.82,70.37-170.53,78.87-212.2,6.36-31.08-56.09-98.6-64.1-77.23-8.01,21.37-17.19,35.12-25.93,33.76-2.19-.34-17.05-21.71-25.5-26.23-25.35-13.55-62.99-15.25-66.39-16.9-4.52-2.19-79.3-57.6-80.18-45.56-.87,12.09-5.05,24.38-10.15,23.99-5.1-.39-16.71-17.87-18.26-32.01" fill="url(#linear-gradient)"/>
  <path d="M574.75,426.41c8.35-33.12,23.8-108.12,30.5-129.93,4.37-14.23,25.98-71.83,1.16-85-24.82-13.11-45.31-2.57-58.71,28.37-13.4,30.94-29.04,88.01-37.05,109.38" fill="url(#linear-gradient-2)"/>
  <path d="M484.67,382.99c-8.74-1.36,6.02-77.47,11.56-112.44,7.14-44.73,14.57-91.36,18.84-134.83,3.45-35.17-5.49-67.71-31.42-67.51-25.93.19-39.14,24.53-48.08,66.93-8.94,42.4-15.35,126.19-18.75,156.15-4.42,39.24-19.52,50.76-24.04,48.57" fill="url(#linear-gradient-3)"/>
  <path d="M515.17,135.77c2.57-26.42-1.8-51.29-15.1-62.02-10.3,3.3-8.55,142.65-34.48,248.82-4.52,18.36,4.95,54.45,17.87,59.5-5.83-8.89,7.58-78.49,12.82-111.47,7.09-44.73,14.52-91.36,18.89-134.83Z" fill="url(#linear-gradient-4)"/>
  <path d="M242.33,327.43l41.86-41.19c-8.26-74.55-17.43-110.74-25.84-151.83-13.31-65.13-35.55-77.76-56.67-72.76-21.17,5.05-38.17,24.29-30.11,56.88,8.06,32.64,29.09,155.86,39.14,190.2l31.61,18.7Z" fill="url(#linear-gradient-5)"/>
  <path d="M392.83,339.86c-4.52-2.23-1.55-118.66-.58-131.67.92-12.97,1.21-156.74-.15-169.41-1.36-12.68-8.01-41.53-39.14-38.56-59.2,5.68-39.58,90.68-40.31,138.91-.44,25.74.87,143.14,0,155.18" fill="url(#linear-gradient-6)"/>
  <path d="M258.36,134.46c-13.31-65.13-35.55-77.76-56.67-72.76-.53.15-1.12.29-1.65.44,3.69,30.36,30.5,64.36,36.86,107.78,8.21,56.1,19.47,152.27,58.08,145.66-4.91-.83-9.28-15.69-10.78-29.29-8.26-74.55-17.43-110.74-25.84-151.83Z" fill="url(#linear-gradient-7)"/>
  <path d="M392.15,38.82c-1.26-11.07-6.46-34.53-28.55-38.27-15.64,40.7,3.3,72.9.87,130.41-2.82,66.3-11.27,200.11,28.36,208.95-4.52-2.23-1.55-118.66-.58-131.67.92-13.02,1.26-156.74-.1-169.41Z" fill="url(#linear-gradient-8)"/>
  <path d="M409.88,321.16c-4.08,9.23-11.27,18.46-14.47,18.99,6.12.05,12.33-10.93,14.47-18.99Z" fill="url(#linear-gradient-9)"/>
  <path d="M127.77,407.47c27.73,23.02,91.1,36.82,92.76-37.3-2.52,14.28-7.38,26.47-15.83,33.76-21.46,18.51-43.75,4.71-61.82-16.22-46.43-53.82-104.95-38.95-120.88-25.21-4.08,3.55-11.17,11.32-16.22,20.5-.29,5.15.87,1.07,18.45-9.32,51.58-30.5,75.86,10.78,103.54,33.8Z" fill="url(#linear-gradient-10)"/>
  <path d="M392.1,38.83c-1.07-9.71-7.19-35.6-18.31-23.17-4.27,4.81-5.59,11.51-4.03,17.73,16.41,65.91,6.75,171.35,1.07,248.58-2.77,37.64.87,59.89,22,57.94-4.52-2.23-1.55-118.66-.58-131.67.92-13.02,1.26-156.73-.14-169.41Z" fill="url(#linear-gradient-11)"/>
  <path d="M500.06,73.74c7.58,123.13-61.24,306.19-15.35,309.29-8.74-1.36,6.02-77.47,11.56-112.44,7.14-44.73,14.57-91.36,18.84-134.83,2.57-26.42-1.8-51.34-15.06-62.02Z" fill="url(#linear-gradient-12)"/>
  <path d="M243.84,136.21c14.72,48.18,7.87,140.22,50.36,179.17,5.2,4.76,7.77,2.53,8.26,2.91-5.1-.39-16.7-17.87-18.26-32.01-8.26-74.56-17.43-110.74-25.84-151.83-11.61-56.92-30.06-73.78-48.61-73.78,9.95,20.25,22.34,36.86,34.09,75.53Z" fill="url(#linear-gradient-13)"/>
</svg>